<svg width="198" height="200" viewBox="0 0 198 200" fill="none" xmlns="http://www.w3.org/2000/svg">
<g clip-path="url(#clip0_35_314)">
<path d="M108.247 109.413H107.205L103.193 140.502H103.159C102.883 142.338 101.071 143.757 98.8723 143.757C96.4834 143.757 94.5461 142.083 94.5461 140.017C94.5461 140.006 94.5478 139.995 94.5478 139.985L90.6118 109.413H89.5705C88.0341 109.413 86.7878 108.337 86.7878 107.009C86.7878 106.443 87.0154 105.924 87.394 105.513H110.423C110.801 105.924 111.029 106.443 111.029 107.009C111.029 108.337 109.783 109.413 108.247 109.413ZM125.591 166.054C130.537 166.054 134.544 170.106 134.544 175.119C134.544 180.148 130.537 184.239 125.591 184.239C120.663 184.239 116.638 180.148 116.638 175.119C116.638 170.106 120.663 166.054 125.591 166.054M194.159 75.1867C190.732 61.3818 184.187 50.996 170.302 50.996H152.395V72.1841C152.395 88.6103 138.469 102.436 122.588 102.436H74.9296C61.8754 102.436 51.0731 113.609 51.0731 126.682V172.116C51.0731 185.047 62.3167 192.652 74.9296 196.362C90.0332 200.803 104.517 201.606 122.588 196.362C134.6 192.884 146.445 185.885 146.445 172.116V153.931H98.7865V147.87H146.445H170.302C184.169 147.87 189.336 138.197 194.159 123.679C199.14 108.733 198.928 94.3596 194.159 75.1867" fill="#468A2E"/>
<path d="M111.355 93.353H86.4609C84.3889 93.353 83.6196 91.9005 83.6196 90.1099C83.6196 89.4494 83.6627 88.8365 83.8209 88.3241H104.483C105.011 87.4214 105.412 86.2748 105.412 85.0005C105.412 82.2841 104.052 80.2952 102.252 79.8036C102.096 81.8494 99.6725 81.6512 98.8458 80.7676C97.6649 79.4072 98.284 76.8512 99.2854 75.9067C97.1027 76.497 95.6569 76.9361 93.9276 78.533C92.3502 79.9925 91.4005 81.5139 91.2685 83.7059C91.1973 84.8921 91.3676 86.101 91.8018 87.2019C90.6542 86.4316 89.6151 85.4583 88.7507 84.2774C87.6733 82.813 87.0307 81.2356 86.6151 79.4636C85.6987 75.6752 86.0391 72.0187 86.256 71.0499C86.5582 69.6992 86.7756 68.1494 87.3898 66.945C88.4245 64.9325 89.6053 63.2267 91.3769 61.8098C90.5218 63.969 92.18 66.6756 94.9622 65.9574C95.0005 65.9338 95.0285 65.9058 95.0711 65.8863C96.9418 65.1027 98.0191 63.7467 98.5814 62.2823C99.5262 59.9205 98.4631 56.4952 96.3374 55.1961C98.6991 55.0778 101.151 56.1409 102.805 57.4401C104.576 58.8574 105.403 60.6192 105.578 63.0525C105.847 66.7418 101.869 70.4125 104.132 72.7934C106.905 74.6734 108.445 69.7414 106.612 67.2427C109.504 68.5036 110.628 71.197 111.256 73.6201C112.083 76.809 111.964 78.7876 110.982 81.453C109.62 85.1468 108.332 86.8054 104.74 88.3241H113.855C114.091 88.8365 114.197 89.4494 114.197 90.1099C114.197 91.9005 113.426 93.353 111.355 93.353ZM71.9271 32.8116C66.9804 32.8116 62.9733 28.7587 62.9733 23.7467C62.9733 18.7169 66.9804 14.6267 71.9271 14.6267C76.8551 14.6267 80.88 18.7169 80.88 23.7467C80.88 28.7587 76.8551 32.8116 71.9271 32.8116M122.588 1.94755C114.628 0.622658 106.376 -3.77004e-06 98.4351 -3.77004e-06C98.1991 -3.77004e-06 97.9654 -1.10401e-05 97.7298 0.00087785C89.5733 0.0386557 81.7836 0.734659 74.9293 1.94755C54.7391 5.51422 51.0729 12.9805 51.0729 26.7494V44.9352H98.7867V50.9961H51.0729H33.1662C19.299 50.9961 7.1568 59.3312 3.35902 75.1867C-1.02187 93.361 -1.2161 104.702 3.35902 123.679C6.75102 137.805 14.8501 147.87 28.7173 147.87H45.1226V126.07C45.1226 110.322 58.7489 96.4299 74.9293 96.4299H122.588C135.854 96.4299 146.445 85.5063 146.445 72.1841V26.7494C146.445 13.8191 135.536 4.10577 122.588 1.94755" fill="#E25D60"/>
<path d="M104.605 88.3828C104.651 88.3633 104.693 88.3437 104.739 88.3242H104.483C104.457 88.3686 104.433 88.4153 104.406 88.4584C104.472 88.4348 104.538 88.4113 104.605 88.3828Z" fill="white"/>
</g>
<defs>
<clipPath id="clip0_35_314">
<rect width="197.816" height="200" fill="white"/>
</clipPath>
</defs>
</svg>
